<mxfile host="app.diagrams.net" agent="Mozilla/5.0 (Windows NT 10.0; Win64; x64) AppleWebKit/537.36 (KHTML, like Gecko) Chrome/139.0.0.0 Safari/537.36" version="28.1.2">
  <diagram name="Stratum Protocol" id="w2IsIS3S49XQDsfhOpsc">
    <mxGraphModel dx="2066" dy="1103" grid="1" gridSize="10" guides="1" tooltips="1" connect="1" arrows="1" fold="1" page="1" pageScale="1" pageWidth="827" pageHeight="1169" math="0" shadow="0">
      <root>
        <mxCell id="0" />
        <mxCell id="1" parent="0" />
        <mxCell id="Ay433vLhD5onKc3j3dtD-1" value="Victim" style="text;html=1;fontSize=16;fontStyle=1;align=center;" vertex="1" parent="1">
          <mxGeometry x="210" y="130" width="80" height="30" as="geometry" />
        </mxCell>
        <mxCell id="Ay433vLhD5onKc3j3dtD-2" value="C2 Server" style="text;html=1;fontSize=16;fontStyle=1;align=center;" vertex="1" parent="1">
          <mxGeometry x="530" y="130" width="120" height="30" as="geometry" />
        </mxCell>
        <mxCell id="Ay433vLhD5onKc3j3dtD-3" style="shape=line;dashed=1;strokeWidth=2;" edge="1" parent="1">
          <mxGeometry x="120" y="60" height="500" relative="1" as="geometry">
            <mxPoint x="120" y="60" as="sourcePoint" />
            <mxPoint x="120" y="560" as="targetPoint" />
          </mxGeometry>
        </mxCell>
        <mxCell id="Ay433vLhD5onKc3j3dtD-4" style="shape=line;dashed=1;strokeWidth=2;" edge="1" parent="1">
          <mxGeometry x="460" y="60" height="500" relative="1" as="geometry">
            <mxPoint x="460" y="60" as="sourcePoint" />
            <mxPoint x="460" y="560" as="targetPoint" />
          </mxGeometry>
        </mxCell>
        <mxCell id="Ay433vLhD5onKc3j3dtD-5" value="① Miner.Login" style="endArrow=block;html=1;" edge="1" parent="1">
          <mxGeometry relative="1" as="geometry">
            <mxPoint x="250" y="210" as="sourcePoint" />
            <mxPoint x="590" y="210" as="targetPoint" />
          </mxGeometry>
        </mxCell>
        <mxCell id="Ay433vLhD5onKc3j3dtD-6" value="② Pool.Verify" style="endArrow=block;html=1;" edge="1" parent="1">
          <mxGeometry relative="1" as="geometry">
            <mxPoint x="590" y="250" as="sourcePoint" />
            <mxPoint x="250" y="250" as="targetPoint" />
          </mxGeometry>
        </mxCell>
        <mxCell id="Ay433vLhD5onKc3j3dtD-7" value="③ Pool.Send_job" style="endArrow=block;html=1;" edge="1" parent="1">
          <mxGeometry relative="1" as="geometry">
            <mxPoint x="590" y="290" as="sourcePoint" />
            <mxPoint x="250" y="290" as="targetPoint" />
          </mxGeometry>
        </mxCell>
        <mxCell id="Ay433vLhD5onKc3j3dtD-8" value="④ Mining" style="shape=note;whiteSpace=wrap;html=1;fontSize=12;fillColor=#FFF2CC;" vertex="1" parent="1">
          <mxGeometry x="330" y="330" width="120" height="40" as="geometry" />
        </mxCell>
        <mxCell id="Ay433vLhD5onKc3j3dtD-9" value="⑤ Miner.Submit" style="endArrow=block;html=1;" edge="1" parent="1">
          <mxGeometry relative="1" as="geometry">
            <mxPoint x="250" y="390" as="sourcePoint" />
            <mxPoint x="590" y="390" as="targetPoint" />
          </mxGeometry>
        </mxCell>
        <mxCell id="Ay433vLhD5onKc3j3dtD-10" value="⑥ Pool.Confirm" style="endArrow=block;html=1;" edge="1" parent="1">
          <mxGeometry relative="1" as="geometry">
            <mxPoint x="590" y="430" as="sourcePoint" />
            <mxPoint x="250" y="430" as="targetPoint" />
          </mxGeometry>
        </mxCell>
        <mxCell id="Ay433vLhD5onKc3j3dtD-11" value="⑦ Pool.Send_job" style="endArrow=block;html=1;" edge="1" parent="1">
          <mxGeometry relative="1" as="geometry">
            <mxPoint x="590" y="470" as="sourcePoint" />
            <mxPoint x="250" y="470" as="targetPoint" />
          </mxGeometry>
        </mxCell>
      </root>
    </mxGraphModel>
  </diagram>
</mxfile>
